<?xml version="1.0" encoding="UTF-8"?>
<svg id="Outline" xmlns="http://www.w3.org/2000/svg" version="1.1" viewBox="0 0 841.9 251.8">
  <!-- Generator: Adobe Illustrator 29.1.0, SVG Export Plug-In . SVG Version: 2.1.0 Build 142)  -->
  <defs>
    <style>
      .st0 {
        fill: #015376;
      }
    </style>
  </defs>
  <path class="st0" d="M282.7,118.4l-12.4-21.3h0l-11.9-20.7c-1.7-3-4.9-4.9-8.4-4.9h-49.5c-3.5,0-6.7,1.9-8.4,4.9l-24.7,42.9c-1.7,3-1.7,6.7,0,9.7l24.7,42.9c1.7,3,4.9,4.9,8.4,4.9h49.5c3.5,0,6.7-1.9,8.4-4.9l12.1-21h0l12.3-21.2c2-3.5,2-7.8,0-11.3ZM216.4,149c-3.5,0-6.7-1.9-8.4-4.9l-8.7-15.1c-1.7-3-1.7-6.7,0-9.7l8.7-15.1c1.7-3,4.9-4.9,8.4-4.9h17.3c2.1,1.1,3.8,3,4.8,4.7l9,15.6c1.6,2.7,1.6,6.1,0,8.8l-9,15.6c-1.1,1.9-2.8,3.7-4.8,4.7l-1,.2h-16.4ZM280.5,128.4l-11.5,20h-30.7c1-1,1.8-2.1,2.4-3.2l9-15.6c2-3.5,2-7.8,0-11.3l-9-15.6c-.6-1-1.4-2.2-2.4-3.2h30.6s11.7,20,11.7,20c1.6,2.7,1.6,6.1,0,8.8Z"/>
  <path class="st0" d="M332.4,91.8c-24.9,0-42.3,19.1-42.3,42.8s18.8,43,43.7,43,25.4-3.7,33.7-11.3l-9.5-13.9c-5.2,5.1-14.2,8.1-21.8,8.1-13.9,0-22.2-8.6-23.5-19h60.7v-4.7c0-26.7-16.6-45-40.9-45ZM312.3,127c1-8.1,6.8-18.1,20.1-18.1s19.6,10.3,20.1,18.1h-40.3Z"/>
  <path class="st0" d="M434.8,91.8c-13.4,0-23.4,6.4-28.6,12.7v-10.7h-21.5v81.7h21.5v-55c3.6-4.9,10.2-9.6,18.6-9.6s15.1,3.9,15.1,15.2v49.4h21.5v-57.7c0-15.9-8.6-26.1-26.6-26.1Z"/>
  <path class="st0" d="M515.7,158.5c-4.7,0-7.4-3.9-7.4-9v-36.9h16.6v-18.8h-16.6v-22.3h-21.7v22.3h-13.5v18.8h13.5v42.6c0,14.6,8.1,22.3,23.2,22.3s14.7-2.4,17.9-5.2l-4.6-16.2c-1.2,1.2-4.2,2.4-7.4,2.4Z"/>
  <path class="st0" d="M564.5,105v-11.2h-21.5v81.7h21.5v-54c3.6-5.2,13-9.1,20.1-9.1s4.4.2,5.9.5v-21c-10.2,0-20.3,5.8-26.1,13Z"/>
  <path class="st0" d="M633,92.3c23.7,0,42.9,20.1,42.9,43.8s-19.3,44.2-42.9,44.2-42.9-20.1-42.9-44.2,19.3-43.8,42.9-43.8ZM633,157.7c11.1,0,20.1-9.6,20.1-21.6s-9-21.2-20.1-21.2-20.1,9.4-20.1,21.2,8.8,21.6,20.1,21.6Z"/>
</svg>